<?xml version="1.0" encoding="UTF-8" standalone="no"?>
<!-- Created with Inkscape (http://www.inkscape.org/) -->

<svg
   xmlns:svg="http://www.w3.org/2000/svg"
   xmlns="http://www.w3.org/2000/svg"
   xmlns:xlink="http://www.w3.org/1999/xlink"
   version="1.0"
   width="48"
   height="48"
   id="svg11300"
   style="display:inline;enable-background:new">
  <defs
     id="defs3">
    <linearGradient
       id="linearGradient9753">
      <stop
         id="stop9755"
         style="stop-color:#3465a4;stop-opacity:1"
         offset="0" />
      <stop
         id="stop9757"
         style="stop-color:#729fcf;stop-opacity:1"
         offset="1" />
    </linearGradient>
    <linearGradient
       id="linearGradient9660">
      <stop
         id="stop9662"
         style="stop-color:#888a85;stop-opacity:1"
         offset="0" />
      <stop
         id="stop9664"
         style="stop-color:#888a85;stop-opacity:0"
         offset="1" />
    </linearGradient>
    <linearGradient
       id="linearGradient9652">
      <stop
         id="stop9654"
         style="stop-color:#888a85;stop-opacity:1"
         offset="0" />
      <stop
         id="stop9656"
         style="stop-color:#888a85;stop-opacity:0"
         offset="1" />
    </linearGradient>
    <linearGradient
       id="linearGradient9640">
      <stop
         id="stop9642"
         style="stop-color:#888a85;stop-opacity:1"
         offset="0" />
      <stop
         id="stop9648"
         style="stop-color:#555753;stop-opacity:1"
         offset="0.17817529" />
      <stop
         id="stop9650"
         style="stop-color:#2e3436;stop-opacity:1"
         offset="0.80820233" />
      <stop
         id="stop9644"
         style="stop-color:#888a85;stop-opacity:1"
         offset="1" />
    </linearGradient>
    <linearGradient
       id="linearGradient11900">
      <stop
         id="stop11902"
         style="stop-color:#000000;stop-opacity:1"
         offset="0" />
      <stop
         id="stop11904"
         style="stop-color:#000000;stop-opacity:0"
         offset="1" />
    </linearGradient>
    <linearGradient
       id="linearGradient8930">
      <stop
         id="stop8932"
         style="stop-color:#000000;stop-opacity:1"
         offset="0" />
      <stop
         id="stop8934"
         style="stop-color:#000000;stop-opacity:0"
         offset="1" />
    </linearGradient>
    <linearGradient
       id="linearGradient8918">
      <stop
         id="stop8920"
         style="stop-color:#ffffff;stop-opacity:1"
         offset="0" />
      <stop
         id="stop8922"
         style="stop-color:#ffffff;stop-opacity:0"
         offset="1" />
    </linearGradient>
    <linearGradient
       id="linearGradient8889">
      <stop
         id="stop8891"
         style="stop-color:#ffffff;stop-opacity:1"
         offset="0" />
      <stop
         id="stop8893"
         style="stop-color:#ffffff;stop-opacity:0"
         offset="1" />
    </linearGradient>
    <linearGradient
       id="linearGradient3831">
      <stop
         id="stop3833"
         style="stop-color:#000000;stop-opacity:1"
         offset="0" />
      <stop
         id="stop3835"
         style="stop-color:#000000;stop-opacity:0.49803922"
         offset="0.66581178" />
      <stop
         id="stop3837"
         style="stop-color:#000000;stop-opacity:0"
         offset="1" />
    </linearGradient>
    <linearGradient
       id="linearGradient3695">
      <stop
         id="stop3697"
         style="stop-color:#000000;stop-opacity:1"
         offset="0" />
      <stop
         id="stop3699"
         style="stop-color:#000000;stop-opacity:0"
         offset="1" />
    </linearGradient>
    <linearGradient
       id="linearGradient3685">
      <stop
         id="stop3687"
         style="stop-color:#000000;stop-opacity:1"
         offset="0" />
      <stop
         id="stop3689"
         style="stop-color:#000000;stop-opacity:0"
         offset="1" />
    </linearGradient>
    <linearGradient
       id="linearGradient3597">
      <stop
         id="stop3599"
         style="stop-color:#ffffff;stop-opacity:0"
         offset="0" />
      <stop
         id="stop3654"
         style="stop-color:#ffffff;stop-opacity:0"
         offset="0.40612376" />
      <stop
         id="stop3601"
         style="stop-color:#ffffff;stop-opacity:1"
         offset="1" />
    </linearGradient>
    <linearGradient
       id="linearGradient3665">
      <stop
         id="stop3667"
         style="stop-color:#ffffff;stop-opacity:1"
         offset="0" />
      <stop
         id="stop3669"
         style="stop-color:#ffffff;stop-opacity:0"
         offset="1" />
    </linearGradient>
    <linearGradient
       id="linearGradient7088">
      <stop
         id="stop7090"
         style="stop-color:#ffffff;stop-opacity:1"
         offset="0" />
      <stop
         id="stop7096"
         style="stop-color:#c8c8c1;stop-opacity:1"
         offset="0.63414639" />
      <stop
         id="stop7092"
         style="stop-color:#d9d9d4;stop-opacity:1"
         offset="1" />
    </linearGradient>
    <linearGradient
       id="linearGradient11307">
      <stop
         id="stop11309"
         style="stop-color:#888a85;stop-opacity:1"
         offset="0" />
      <stop
         id="stop11311"
         style="stop-color:#3d3f3c;stop-opacity:1"
         offset="1" />
    </linearGradient>
    <linearGradient
       id="linearGradient7134">
      <stop
         id="stop7136"
         style="stop-color:#f0f0ee;stop-opacity:1"
         offset="0" />
      <stop
         id="stop7138"
         style="stop-color:#a1a196;stop-opacity:1"
         offset="1" />
    </linearGradient>
    <linearGradient
       id="linearGradient2401">
      <stop
         id="stop2403"
         style="stop-color:#888a85;stop-opacity:1"
         offset="0" />
      <stop
         id="stop2405"
         style="stop-color:#555753;stop-opacity:1"
         offset="1" />
    </linearGradient>
    <linearGradient
       id="linearGradient3183">
      <stop
         id="stop3185"
         style="stop-color:#ffffff;stop-opacity:1"
         offset="0" />
      <stop
         id="stop3187"
         style="stop-color:#ffffff;stop-opacity:0"
         offset="1" />
    </linearGradient>
    <linearGradient
       id="linearGradient3211">
      <stop
         id="stop3213"
         style="stop-color:#ffffff;stop-opacity:1"
         offset="0" />
      <stop
         id="stop3215"
         style="stop-color:#ffffff;stop-opacity:0"
         offset="1" />
    </linearGradient>
    <filter
       x="-0.084656589"
       y="-0.84697956"
       width="1.1693132"
       height="2.693959"
       color-interpolation-filters="sRGB"
       id="filter3970">
      <feGaussianBlur
         id="feGaussianBlur3972"
         stdDeviation="1.058738" />
    </filter>
    <filter
       x="-0.033863209"
       y="-0.26296699"
       width="1.0677264"
       height="1.525934"
       color-interpolation-filters="sRGB"
       id="filter9701">
      <feGaussianBlur
         id="feGaussianBlur9703"
         stdDeviation="0.43828163" />
    </filter>
    <linearGradient
       x1="503.0809"
       y1="45.324997"
       x2="518.26392"
       y2="69.896187"
       id="linearGradient3236"
       xlink:href="#linearGradient9753"
       gradientUnits="userSpaceOnUse"
       gradientTransform="translate(-476.16565,-49.02595)" />
    <linearGradient
       x1="498.5"
       y1="89.3125"
       x2="488.9375"
       y2="93.625"
       id="linearGradient3246"
       xlink:href="#linearGradient9660"
       gradientUnits="userSpaceOnUse"
       gradientTransform="translate(-476.16565,-49.02595)" />
    <linearGradient
       x1="498.42447"
       y1="96.75"
       x2="499.8288"
       y2="120.1875"
       id="linearGradient3249"
       xlink:href="#linearGradient9652"
       gradientUnits="userSpaceOnUse"
       gradientTransform="matrix(1.012153,0,-0.1779795,1,-461.17796,-70.02595)" />
    <linearGradient
       x1="511.03043"
       y1="92.15889"
       x2="511.03043"
       y2="73.90361"
       id="linearGradient3253"
       xlink:href="#linearGradient9640"
       gradientUnits="userSpaceOnUse"
       gradientTransform="translate(-476.16565,-49.02595)" />
    <radialGradient
       cx="319.51562"
       cy="71.224541"
       r="18.484375"
       fx="319.51562"
       fy="71.224541"
       id="radialGradient3323"
       xlink:href="#linearGradient11900"
       gradientUnits="userSpaceOnUse"
       gradientTransform="matrix(0.6552646,-0.00676247,0.00552604,0.5354579,-189.41089,-10.502975)" />
    <radialGradient
       cx="319.51566"
       cy="112.44332"
       r="18.484375"
       fx="319.51566"
       fy="112.44332"
       id="radialGradient3326"
       xlink:href="#linearGradient8918"
       gradientUnits="userSpaceOnUse"
       gradientTransform="matrix(1.2990853,0,0,0.4592381,-394.72809,-7.634792)" />
    <radialGradient
       cx="313.76562"
       cy="67.761253"
       r="18.453125"
       fx="313.76562"
       fy="67.761253"
       id="radialGradient3329"
       xlink:href="#linearGradient8889"
       gradientUnits="userSpaceOnUse"
       gradientTransform="matrix(2.7113513,0,0,1.0203501,-836.12886,-46.791149)" />
    <radialGradient
       cx="319.375"
       cy="89.75"
       r="21.125"
       fx="319.375"
       fy="89.75"
       id="radialGradient3340"
       xlink:href="#linearGradient8930"
       gradientUnits="userSpaceOnUse"
       gradientTransform="matrix(0.8284027,0,0,0.14201177,-244.23676,29.228492)" />
    <radialGradient
       cx="319.375"
       cy="89.75"
       r="21.125"
       fx="319.375"
       fy="89.75"
       id="radialGradient3343"
       xlink:href="#linearGradient8930"
       gradientUnits="userSpaceOnUse"
       gradientTransform="matrix(0.9576164,0,0,0.19070158,-285.50439,24.858583)" />
    <linearGradient
       x1="73.414131"
       y1="53.407055"
       x2="76.044403"
       y2="66.279846"
       id="linearGradient3354"
       xlink:href="#linearGradient3183"
       gradientUnits="userSpaceOnUse"
       gradientTransform="matrix(2.4085856,0,0,2.4152073,-165.72793,-116.0615)" />
    <linearGradient
       x1="77.114586"
       y1="54.003254"
       x2="77.114586"
       y2="56.299889"
       id="linearGradient3357"
       xlink:href="#linearGradient3211"
       gradientUnits="userSpaceOnUse"
       gradientTransform="matrix(3.0924468,0,0,3.5187969,-217.97636,-177.8361)" />
    <radialGradient
       cx="77.25"
       cy="53.774418"
       r="5.0104723"
       fx="77.25"
       fy="53.774418"
       id="radialGradient3360"
       xlink:href="#linearGradient7088"
       gradientUnits="userSpaceOnUse"
       gradientTransform="matrix(3.1056493,0,0,3.1138914,-219.57607,-154.08178)" />
    <linearGradient
       x1="74.809799"
       y1="55.235325"
       x2="75.192665"
       y2="59.013077"
       id="linearGradient3362"
       xlink:href="#linearGradient2401"
       gradientUnits="userSpaceOnUse"
       gradientTransform="matrix(2.5992982,0,0,2.6061965,-180.46045,-126.78078)" />
    <linearGradient
       x1="393.9375"
       y1="85.4375"
       x2="393.9375"
       y2="89.814285"
       id="linearGradient3379"
       xlink:href="#linearGradient3695"
       gradientUnits="userSpaceOnUse"
       gradientTransform="translate(-359.16565,-52.02595)" />
    <linearGradient
       x1="309.80115"
       y1="197"
       x2="309.80115"
       y2="193.31165"
       id="linearGradient3382"
       xlink:href="#linearGradient3665"
       gradientUnits="userSpaceOnUse"
       gradientTransform="matrix(2.4999995,0,0,2.1192332,-763.41547,-375.95528)" />
    <linearGradient
       x1="363.98322"
       y1="92.558792"
       x2="363.98322"
       y2="84.044449"
       id="linearGradient3385"
       xlink:href="#linearGradient3685"
       gradientUnits="userSpaceOnUse"
       gradientTransform="translate(-359.16565,-52.02595)" />
    <radialGradient
       cx="379.50003"
       cy="61.2845"
       r="18.5"
       fx="379.50003"
       fy="61.2845"
       id="radialGradient3388"
       xlink:href="#linearGradient3831"
       gradientUnits="userSpaceOnUse"
       gradientTransform="matrix(0.651993,0,0,0.4554508,-227.097,-8.734608)" />
    <radialGradient
       cx="379.5"
       cy="76.229538"
       r="18.5"
       fx="379.5"
       fy="76.229538"
       id="radialGradient3391"
       xlink:href="#linearGradient3597"
       gradientUnits="userSpaceOnUse"
       gradientTransform="matrix(1.7506789,0,0,0.4317528,-644.04835,-0.700839)" />
    <radialGradient
       cx="22.989853"
       cy="19.626234"
       r="5.8947372"
       fx="22.989853"
       fy="19.626234"
       id="radialGradient3395"
       xlink:href="#linearGradient7134"
       gradientUnits="userSpaceOnUse"
       gradientTransform="matrix(5.07848,0,0,2.2621725,-96.41819,-17.933804)" />
    <linearGradient
       x1="22.405174"
       y1="19.230879"
       x2="22.405174"
       y2="25.107412"
       id="linearGradient3397"
       xlink:href="#linearGradient11307"
       gradientUnits="userSpaceOnUse"
       gradientTransform="matrix(3.454002,0,0,2.9465769,-59.07167,-33.57281)" />
  </defs>
  <path
     d="m 43.33435,42.47405 0,1.50001 c 0,0.83101 -0.669,1.50002 -1.5,1.50002 l -27.0625,0 c -0.831,0 -1.5,-0.66901 -1.5,-1.50002 l 0,-1.50001 30.0625,0 z"
     id="path9691"
     style="opacity:0.4;fill:#000000;fill-opacity:1;stroke:#000000;stroke-width:1.00000012;stroke-linecap:butt;stroke-linejoin:round;stroke-miterlimit:4;stroke-opacity:1;display:inline;filter:url(#filter9701);enable-background:new" />
  <path
     d="m 40.563994,41.974052 a 20.229646,4.0285716 0 0 1 -40.4592927,0 20.229646,4.0285716 0 1 1 40.4592927,0 z"
     id="path11655"
     style="opacity:0.35;fill:url(#radialGradient3343);fill-opacity:1;stroke:none;display:inline;enable-background:new" />
  <path
     d="m 37.834359,41.97405 a 17.500007,2.9999991 0 0 1 -35.0000137,0 17.500007,2.9999991 0 1 1 35.0000137,0 z"
     id="path11657"
     style="fill:url(#radialGradient3340);fill-opacity:1;stroke:none" />
  <path
     d="m 20.33435,20.47405 c -10.50696,-2e-6 -19,4.914904 -19,12.4375 1e-5,2.703455 1.11784,7.272278 5,8.3125 1e-5,1e-6 0.0625,1.09375 0.0625,1.09375 1.25702,0.20172 2.98003,1.15625 13.9375,1.15625 0.0111,0 0.0201,4e-6 0.0312,0 10.95747,0 12.68048,-0.954534 13.9375,-1.15625 0,0 0.0625,-1.093753 0.0625,-1.09375 3.88216,-1.040222 4.99999,-5.609049 5,-8.3125 0,-7.522596 -8.49304,-12.437506 -19,-12.4375 -0.0106,-10e-6 -0.0207,0 -0.0312,0 z"
     id="path11661"
     style="fill:url(#radialGradient3395);fill-opacity:1;fill-rule:evenodd;stroke:url(#linearGradient3397);stroke-width:0.99999988;stroke-linecap:butt;stroke-linejoin:round;stroke-miterlimit:4;stroke-opacity:1;stroke-dasharray:none;stroke-dashoffset:0;marker:none;visibility:visible;display:inline;overflow:visible;enable-background:accumulate" />
  <path
     d="m 305.38366,80.5 c 9.45297,-1.293692 18.83001,-1.372495 28.11634,0"
     transform="matrix(1.0533498,0,0,1,-316.2078,-53.02595)"
     id="path11663"
     style="fill:none;stroke:#ffffff;stroke-width:1.94869423;stroke-linecap:round;stroke-linejoin:miter;stroke-miterlimit:4;stroke-opacity:1;stroke-dasharray:none;display:inline;filter:url(#filter3970);enable-background:new" />
  <path
     d="m 20.33435,20.97405 c -5.17682,-10e-7 -9.84892,1.174086 -13.1875,3.28125 -3.33266,2.103429 -5.3125,5.082885 -5.3125,8.65625 0,0.553004 0.0649,1.163986 0.15625,1.78125 0.50261,-1.861515 2.33593,-3.436703 5.15625,-4.59375 3.33858,-1.369666 8.01068,-2.125003 13.1875,-2.125 5.1768,0 9.84892,0.755331 13.1875,2.125 2.82032,1.15705 4.65364,2.732237 5.15625,4.59375 0.09137,-0.617263 0.15625,-1.228249 0.15625,-1.78125 0,-3.573364 -1.97984,-6.552821 -5.3125,-8.65625 -3.33858,-2.107164 -8.0107,-3.28125 -13.1875,-3.28125 z"
     id="path11665"
     style="opacity:0.80365295;fill:url(#radialGradient3391);fill-opacity:1;fill-rule:evenodd;stroke:none;stroke-width:1;marker:none;visibility:visible;display:inline;overflow:visible;enable-background:accumulate" />
  <path
     d="m 20.33435,20.97405 c -5.17682,-10e-7 -9.84892,1.174086 -13.1875,3.28125 -1.60235,1.011334 -2.87406,2.239999 -3.78125,3.625 l 33.9375,0 c -0.90719,-1.385002 -2.1789,-2.613666 -3.78125,-3.625 -3.33858,-2.107164 -8.0107,-3.28125 -13.1875,-3.28125 z"
     id="path11667"
     style="opacity:0.65753425;fill:url(#radialGradient3388);fill-opacity:1;fill-rule:evenodd;stroke:none;stroke-width:1;marker:none;visibility:visible;display:inline;overflow:visible;enable-background:accumulate" />
  <path
     d="m 5.14685,25.78655 c -2.11017,1.930353 -3.30465,4.338744 -3.3125,7.125 -0.008,2.794394 1.15154,5.564784 2.46875,6.65625 0.672,0.556831 1.25521,0.960937 2.47656,1.289062 L 5.14685,25.78655 z m 30.375,0 -1.61363,15.102903 c 0.93317,-0.227658 2.09224,-0.897804 2.87186,-1.677427 1.61767,-2.035478 2.05427,-3.826406 2.05427,-6.300476 0,-2.786267 -1.20233,-5.194646 -3.3125,-7.125 z"
     id="path11669"
     style="opacity:0.1;fill:url(#linearGradient3385);fill-opacity:1;fill-rule:evenodd;stroke:none;stroke-width:1;marker:none;visibility:visible;display:inline;overflow:visible;enable-background:accumulate" />
  <path
     d="M 5.33436,23.520188 7.3656,41.474053 c 0,0 4.3047,1 12.96874,1 8.70824,0 12.96875,-1 12.96875,-1 l 2.03126,-17.953865 c 0,0 -29.99999,0 -29.99999,0 z"
     id="path11671"
     style="opacity:0.4;fill:none;stroke:url(#linearGradient3382);stroke-width:1;stroke-linecap:round;stroke-linejoin:miter;stroke-miterlimit:4;stroke-opacity:1;display:inline;enable-background:new" />
  <path
     d="m 5.83435,31.78655 c 0,0 -1.03125,9.1875 -1.03125,9.1875 l 2.15625,0 -1.125,-9.1875 z m 29,0 -1.125,8.1875 2.15625,0 c 0,0 -1.03125,-8.1875 -1.03125,-8.1875 z"
     id="path11673"
     style="opacity:0.23744291;fill:url(#linearGradient3379);fill-opacity:1;fill-rule:evenodd;stroke:none;stroke-width:1;marker:none;visibility:visible;display:inline;overflow:visible;enable-background:accumulate" />
  <path
     d="m 20.33435,21.53655 c -5.08785,-10e-7 -9.65885,1.188854 -12.875,3.21875 -3.21615,2.029896 -5.0625,4.794707 -5.0625,8.15625 0,1.205325 0.26268,2.891645 0.9375,4.3125 0.67482,1.420855 1.69109,2.542669 3.28125,2.96875 a 1.062339,1.062339 0 0 1 0.78125,0.96875 l 0,0.25 c 0.59818,0.141194 1.05813,0.309872 2.46875,0.5 1.89114,0.254894 5.02086,0.5 10.46875,0.5 l 0.0312,0 c 5.44789,0 8.57761,-0.245105 10.46875,-0.5 1.41062,-0.190129 1.87057,-0.358807 2.46875,-0.5 0.005,-0.08767 0,-0.25 0,-0.25 a 1.062339,1.062339 0 0 1 0.7813,-0.96875 c 1.59016,-0.426081 2.60643,-1.547894 3.28125,-2.96875 0.67482,-1.420856 0.9375,-3.107177 0.9375,-4.3125 0,-3.361543 -1.84635,-6.126354 -5.0625,-8.15625 -3.21615,-2.029896 -7.78715,-3.218753 -12.875,-3.21875 -0.009,-9e-6 -0.02,0 -0.0312,0 z"
     id="path11675"
     style="fill:none;stroke:url(#radialGradient3329);stroke-width:0.99999988;stroke-linecap:butt;stroke-linejoin:round;stroke-miterlimit:4;stroke-opacity:1;stroke-dasharray:none;stroke-dashoffset:0;marker:none;visibility:visible;display:inline;overflow:visible;enable-background:accumulate" />
  <path
     d="m 20.33435,21.0053 c -5.17038,-10e-7 -9.83024,1.213267 -13.15625,3.3125 -3.32601,2.099233 -5.3125,5.033019 -5.3125,8.59375 0,1.278274 0.28038,3.047316 1,4.5625 0.71962,1.515184 1.82874,2.777066 3.59375,3.25 A 0.53300286,0.53300286 0 0 1 6.8656,41.1928 l 0.0312,0.6875 c 0.63878,0.133866 1.21947,0.33515 2.90625,0.5625 1.92424,0.259356 5.06799,0.5 10.53125,0.5 l 0.0312,0 c 5.46326,0 8.60701,-0.240644 10.53125,-0.5 1.68678,-0.22735 2.26746,-0.428635 2.90625,-0.5625 0.0183,-0.320953 0.0312,-0.6875 0.0312,-0.6875 a 0.53300286,0.53300286 0 0 1 0.4064,-0.46875 c 1.76501,-0.472934 2.87413,-1.734816 3.59375,-3.25 0.71962,-1.515184 1,-3.284229 1,-4.5625 0,-3.560731 -1.98649,-6.494516 -5.3125,-8.59375 -3.32601,-2.099234 -7.98587,-3.312503 -13.15625,-3.3125 -0.01,-9e-6 -0.0203,0 -0.0312,0 z"
     id="path11685"
     style="opacity:0.8;fill:url(#radialGradient3326);fill-opacity:1;fill-rule:evenodd;stroke:none;stroke-width:0.99999988;marker:none;visibility:visible;display:inline;overflow:visible;enable-background:accumulate" />
  <path
     d="m 20.33435,21.0053 c -5.17038,-10e-7 -9.83024,1.213267 -13.15625,3.3125 -3.32601,2.099233 -5.3125,5.033019 -5.3125,8.59375 0,1.278274 0.28038,3.047316 1,4.5625 0.71962,1.515184 1.82874,2.777066 3.59375,3.25 A 0.53300286,0.53300286 0 0 1 6.8656,41.1928 l 0.0312,0.6875 c 0.63878,0.133866 1.21947,0.33515 2.90625,0.5625 1.92424,0.259356 5.06799,0.5 10.53125,0.5 l 0.0312,0 c 5.46326,0 8.60701,-0.240644 10.53125,-0.5 1.68678,-0.22735 2.26746,-0.428635 2.90625,-0.5625 0.0183,-0.320953 0.0312,-0.6875 0.0312,-0.6875 a 0.53300286,0.53300286 0 0 1 0.4064,-0.46875 c 1.76501,-0.472934 2.87413,-1.734816 3.59375,-3.25 0.71962,-1.515184 1,-3.284229 1,-4.5625 0,-3.560731 -1.98649,-6.494516 -5.3125,-8.59375 -3.32601,-2.099234 -7.98587,-3.312503 -13.15625,-3.3125 -0.01,-9e-6 -0.0203,0 -0.0312,0 z"
     id="path11898"
     style="opacity:0.6;fill:url(#radialGradient3323);fill-opacity:1;fill-rule:evenodd;stroke:none;stroke-width:0.99999988;marker:none;visibility:visible;display:inline;overflow:visible;enable-background:accumulate" />
  <path
     d="m 32.35709,19.491999 a 12.021754,12.053659 0 0 1 -24.0435082,0 12.021754,12.053659 0 1 1 24.0435082,0 z"
     id="path11679"
     style="fill:url(#radialGradient3360);fill-opacity:1;fill-rule:evenodd;stroke:url(#linearGradient3362);stroke-width:1;stroke-linecap:butt;stroke-linejoin:round;stroke-miterlimit:4;stroke-opacity:1;stroke-dasharray:none;stroke-dashoffset:0;marker:none;visibility:visible;display:inline;overflow:visible;enable-background:accumulate" />
  <path
     d="m 27.293327,13.938331 a 6.9580055,4.1785714 0 0 1 -13.916011,0 6.9580055,4.1785714 0 1 1 13.916011,0 z"
     id="path11681"
     style="opacity:0.9;fill:url(#linearGradient3357);fill-opacity:1;fill-rule:evenodd;stroke:none;stroke-width:1;marker:none;visibility:visible;display:inline;overflow:visible;enable-background:accumulate" />
  <path
     d="m 31.475016,19.49201 a 11.139708,11.170334 0 0 1 -22.2794168,0 11.139708,11.170334 0 1 1 22.2794168,0 z"
     id="path11683"
     style="opacity:0.5142857;fill:none;stroke:url(#linearGradient3354);stroke-width:0.90258217;stroke-linecap:butt;stroke-linejoin:round;stroke-miterlimit:4;stroke-opacity:1;stroke-dasharray:none;stroke-dashoffset:0;marker:none;visibility:visible;display:inline;overflow:visible;enable-background:accumulate" />
  <path
     d="m 43.33435,41.47405 0,1.50001 c 0,0.83101 -0.669,1.50002 -1.5,1.50002 l -27.0625,0 c -0.831,0 -1.5,-0.66901 -1.5,-1.50002 l 0,-1.50001 30.0625,0 z"
     id="path9623"
     style="fill:#555753;fill-opacity:1;stroke:#2e3436;stroke-width:1.00000012;stroke-linecap:butt;stroke-linejoin:round;stroke-miterlimit:4;stroke-opacity:1;display:inline;enable-background:new" />
  <path
     d="m 39.83435,41.97405 0,1 c 0,0.562664 -0.43735,1 -1,1 l 1,0 c 0.56265,0 1,-0.437336 1,-1 l 0,-1 -1,0 z"
     id="path9669"
     style="opacity:0.6;fill:#2e3436;fill-opacity:1;stroke:none;display:inline;enable-background:new" />
  <path
     d="m 37.83435,41.97405 0,1 c 0,0.562664 -0.43735,1 -1,1 l 1,0 c 0.56265,0 1,-0.437336 1,-1 l 0,-1 -1,0 z"
     id="path9678"
     style="opacity:0.6;fill:#2e3436;fill-opacity:1;stroke:none;display:inline;enable-background:new" />
  <path
     d="m 35.83435,41.97405 0,1 c 0,0.562664 -0.43735,1 -1,1 l 1,0 c 0.56265,0 1,-0.437336 1,-1 l 0,-1 -1,0 z"
     id="path9680"
     style="opacity:0.6;fill:#2e3436;fill-opacity:1;stroke:none;display:inline;enable-background:new" />
  <path
     d="m 25.37113,25.47405 20.74914,0 c 0.84111,0 1.39918,0.669 1.25128,1.5 l -2.50283,14.0625 c -0.14791,0.831 -0.94411,1.5 -1.78522,1.5 l -20.74915,0 3.03678,-17.0625 z"
     id="path9615"
     style="fill:url(#linearGradient3253);fill-opacity:1;stroke:#2e3436;stroke-width:1.00000012;stroke-linecap:butt;stroke-linejoin:round;stroke-miterlimit:4;stroke-opacity:1;display:inline;enable-background:new" />
  <path
     d="m 26.8656,26.47405 c 0.0299,0.235201 0.22773,0.416971 0.1875,0.65625 l -2.34375,14.0625 c -0.023,0.136838 -0.14625,0.21533 -0.1875,0.34375 l 18.65625,0 c 0.31086,0 0.69525,-0.330551 0.75,-0.65625 l 2.375,-14.0625 c 0.0271,-0.16118 -5.5e-4,-0.244232 -0.0312,-0.28125 -0.0307,-0.03702 -0.0634,-0.0625 -0.21875,-0.0625 l -19.1875,0 z"
     id="path9625"
     style="opacity:0.05;fill:none;stroke:#ffffff;stroke-width:1.00000012;stroke-linecap:butt;stroke-linejoin:round;stroke-miterlimit:4;stroke-opacity:1;display:inline;enable-background:new" />
  <path
     d="m 25.788202,25.97405 -2.858796,16.0625 c 0.57294,0 1.089398,-0.43395 1.190133,-1 l 2.502837,-14.0625 c 0.100745,-0.56605 -0.261245,-1 -0.834174,-1 z"
     id="path9635"
     style="fill:url(#linearGradient3249);fill-opacity:1;stroke:none;display:inline;enable-background:new" />
  <path
     d="m 13.77185,41.97405 0,1 c 0,0.562662 0.43735,0.999999 1,1 l 6.0625,0 c 0.56265,0 1,-0.437336 1,-1 l 0,-1 -8.0625,0 z"
     id="path8839"
     style="fill:url(#linearGradient3246);fill-opacity:1;stroke:none;display:inline;enable-background:new" />
  <rect
     width="1.0606601"
     height="1.1048543"
     rx="1.5"
     ry="1.1048543"
     x="14.773671"
     y="41.974049"
     id="rect9687"
     style="fill:#2e3436;fill-opacity:1;stroke:none" />
  <rect
     width="1.0606601"
     height="1.1048543"
     rx="1.5"
     ry="1.1048543"
     x="16.77367"
     y="41.974049"
     id="rect9689"
     style="fill:#2e3436;fill-opacity:1;stroke:none;display:inline;enable-background:new" />
  <path
     d="m 41.33435,6.47405 3,-4"
     id="path9707"
     style="fill:#729fcf;fill-rule:evenodd;stroke:#204a87;stroke-width:3;stroke-linecap:round;stroke-linejoin:miter;stroke-miterlimit:4;stroke-opacity:1;stroke-dasharray:none;display:inline;enable-background:new" />
  <rect
     width="5"
     height="2"
     rx="0.59375"
     ry="0.59375"
     x="40.334351"
     y="1.47404"
     id="rect9709"
     style="fill:#729fcf;fill-opacity:1;stroke:#204a87;stroke-width:0.99999994;stroke-linecap:round;stroke-linejoin:round;stroke-miterlimit:4;stroke-opacity:1;stroke-dasharray:none;stroke-dashoffset:0.3612" />
  <rect
     width="5"
     height="2"
     rx="0.71875"
     ry="0.71875"
     x="40.334351"
     y="5.47404"
     id="rect9711"
     style="fill:#729fcf;fill-opacity:1;stroke:#204a87;stroke-width:0.99999994;stroke-linecap:round;stroke-linejoin:round;stroke-miterlimit:4;stroke-opacity:1;stroke-dasharray:none;stroke-dashoffset:0.3612;display:inline;enable-background:new" />
  <path
     d="m 41.33435,6.47405 3,-4"
     id="path9713"
     style="fill:#729fcf;fill-rule:evenodd;stroke:#729fcf;stroke-width:1px;stroke-linecap:round;stroke-linejoin:miter;stroke-opacity:1" />
  <path
     d="m 30.1156,3.47405 c -0.42181,0 -0.78125,0.356837 -0.78125,0.78125 l 0,1.4375 c 0,0.424411 0.35945,0.781249 0.78125,0.78125 l 4.09375,0 -4.5625,6.09375 c -0.0834,0.110745 -0.1388,0.220805 -0.1875,0.34375 -0.0339,0.05757 -0.0426,0.122369 -0.0625,0.1875 -0.0245,0.08025 -0.0625,0.161579 -0.0625,0.25 -7.4e-4,0.01022 5.3e-4,0.02102 0,0.03125 l 0,1.21875 c 0,0.480549 0.39147,0.874997 0.875,0.875 l 7.25,0 c 0.48353,0 0.875,-0.394451 0.875,-0.875 l 0,-1.25 c 0,-0.480549 -0.39147,-0.875 -0.875,-0.875 l -3.96875,0 4.53125,-6.09375 c 0.023,-0.02874 0.0418,-0.06371 0.0625,-0.09375 0.008,-0.01141 0.0237,-0.01966 0.0312,-0.03125 0.13762,-0.13847 0.21874,-0.350294 0.21875,-0.5625 l 0,-0.0625 c 0.0166,-0.135834 0.021,-0.269839 0,-0.40625 l 0,-0.96875 c 0,-0.424411 -0.32819,-0.78125 -0.75,-0.78125 l -7.46875,0 z"
     id="rect9719"
     style="fill:url(#linearGradient3236);fill-opacity:1;stroke:#204a87;stroke-width:0.99999994;stroke-linecap:round;stroke-linejoin:round;stroke-miterlimit:4;stroke-opacity:1;stroke-dasharray:none;stroke-dashoffset:0.3612" />
  <rect
     width="8"
     height="1"
     rx="0.17233497"
     ry="0.17233497"
     x="29.834339"
     y="3.97405"
     id="rect9741"
     style="fill:#729fcf;fill-opacity:1;stroke:none" />
  <rect
     width="5.5"
     height="1"
     rx="0.11848029"
     ry="0.17233497"
     x="32.334339"
     y="12.97405"
     id="rect9743"
     style="fill:#729fcf;fill-opacity:1;stroke:none;display:inline;enable-background:new" />
  <path
     d="M 35.50854,6.446318 30.3128,13.47404 30.2996,14.535219"
     id="path9745"
     style="fill:#729fcf;fill-rule:evenodd;stroke:#729fcf;stroke-width:1;stroke-linecap:round;stroke-linejoin:miter;stroke-miterlimit:4;stroke-opacity:1;stroke-dasharray:none;display:inline;enable-background:new" />
</svg>
