<?xml version="1.0" encoding="UTF-8" standalone="no"?>
<!-- Created with Inkscape (http://www.inkscape.org/) -->

<svg
   xmlns:svg="http://www.w3.org/2000/svg"
   xmlns="http://www.w3.org/2000/svg"
   xmlns:xlink="http://www.w3.org/1999/xlink"
   version="1.0"
   width="48"
   height="48"
   id="svg11300"
   style="display:inline;enable-background:new">
  <defs
     id="defs3">
    <linearGradient
       id="linearGradient11533">
      <stop
         id="stop11535"
         style="stop-color:#ffffff;stop-opacity:1"
         offset="0" />
      <stop
         id="stop11537"
         style="stop-color:#ffffff;stop-opacity:0"
         offset="1" />
    </linearGradient>
    <linearGradient
       id="linearGradient8930">
      <stop
         id="stop8932"
         style="stop-color:#000000;stop-opacity:1"
         offset="0" />
      <stop
         id="stop8934"
         style="stop-color:#000000;stop-opacity:0"
         offset="1" />
    </linearGradient>
    <linearGradient
       id="linearGradient7134">
      <stop
         id="stop7136"
         style="stop-color:#f0f0ee;stop-opacity:1"
         offset="0" />
      <stop
         id="stop7138"
         style="stop-color:#a1a196;stop-opacity:1"
         offset="1" />
    </linearGradient>
    <radialGradient
       cx="319.375"
       cy="89.75"
       r="21.125"
       fx="319.375"
       fy="89.75"
       id="radialGradient3750"
       xlink:href="#linearGradient8930"
       gradientUnits="userSpaceOnUse"
       gradientTransform="matrix(1,0,0,0.3313609,0,60.010355)" />
    <radialGradient
       cx="319.375"
       cy="89.75"
       r="21.125"
       fx="319.375"
       fy="89.75"
       id="radialGradient3752"
       xlink:href="#linearGradient8930"
       gradientUnits="userSpaceOnUse"
       gradientTransform="matrix(1,0,0,0.3313609,0,60.010355)" />
    <radialGradient
       cx="21.628534"
       cy="7.3292775"
       r="5.8947372"
       fx="21.628534"
       fy="7.3292775"
       id="radialGradient3754"
       xlink:href="#linearGradient7134"
       gradientUnits="userSpaceOnUse"
       gradientTransform="matrix(19.74797,-5.2914524,2.5727027,9.6014571,-16.474728,94.074612)" />
    <linearGradient
       x1="433.35385"
       y1="53.938446"
       x2="449.21295"
       y2="101.3146"
       id="linearGradient3756"
       xlink:href="#linearGradient11533"
       gradientUnits="userSpaceOnUse" />
    <radialGradient
       cx="319.375"
       cy="89.75"
       r="21.125"
       fx="319.375"
       fy="89.75"
       id="radialGradient2971"
       xlink:href="#linearGradient8930"
       gradientUnits="userSpaceOnUse"
       gradientTransform="matrix(1,0,0,0.3313609,0,60.010355)" />
    <radialGradient
       cx="319.375"
       cy="89.75"
       r="21.125"
       fx="319.375"
       fy="89.75"
       id="radialGradient2973"
       xlink:href="#linearGradient8930"
       gradientUnits="userSpaceOnUse"
       gradientTransform="matrix(1,0,0,0.3313609,0,60.010355)" />
    <radialGradient
       cx="21.628534"
       cy="7.3292775"
       r="5.8947372"
       fx="21.628534"
       fy="7.3292775"
       id="radialGradient2975"
       xlink:href="#linearGradient7134"
       gradientUnits="userSpaceOnUse"
       gradientTransform="matrix(19.74797,-5.2914524,2.5727027,9.6014571,-16.474728,94.074612)" />
    <linearGradient
       x1="433.35385"
       y1="53.938446"
       x2="449.21295"
       y2="101.3146"
       id="linearGradient2977"
       xlink:href="#linearGradient11533"
       gradientUnits="userSpaceOnUse" />
    <radialGradient
       cx="319.375"
       cy="89.75"
       r="21.125"
       fx="319.375"
       fy="89.75"
       id="radialGradient2994"
       xlink:href="#linearGradient8930"
       gradientUnits="userSpaceOnUse"
       gradientTransform="matrix(1,0,0,0.3313609,0,60.010355)" />
    <radialGradient
       cx="319.375"
       cy="89.75"
       r="21.125"
       fx="319.375"
       fy="89.75"
       id="radialGradient2996"
       xlink:href="#linearGradient8930"
       gradientUnits="userSpaceOnUse"
       gradientTransform="matrix(1,0,0,0.3313609,0,60.010355)" />
    <radialGradient
       cx="21.628534"
       cy="7.3292775"
       r="5.8947372"
       fx="21.628534"
       fy="7.3292775"
       id="radialGradient2998"
       xlink:href="#linearGradient7134"
       gradientUnits="userSpaceOnUse"
       gradientTransform="matrix(19.74797,-5.2914524,2.5727027,9.6014571,-16.474728,94.074612)" />
    <linearGradient
       x1="433.35385"
       y1="53.938446"
       x2="449.21295"
       y2="101.3146"
       id="linearGradient3000"
       xlink:href="#linearGradient11533"
       gradientUnits="userSpaceOnUse" />
    <radialGradient
       cx="319.375"
       cy="89.75"
       r="21.125"
       fx="319.375"
       fy="89.75"
       id="radialGradient3037"
       xlink:href="#linearGradient8930"
       gradientUnits="userSpaceOnUse"
       gradientTransform="matrix(1,0,0,0.3313609,0,60.010355)" />
    <radialGradient
       cx="319.375"
       cy="89.75"
       r="21.125"
       fx="319.375"
       fy="89.75"
       id="radialGradient3039"
       xlink:href="#linearGradient8930"
       gradientUnits="userSpaceOnUse"
       gradientTransform="matrix(1,0,0,0.3313609,0,60.010355)" />
    <radialGradient
       cx="21.628534"
       cy="7.3292775"
       r="5.8947372"
       fx="21.628534"
       fy="7.3292775"
       id="radialGradient3041"
       xlink:href="#linearGradient7134"
       gradientUnits="userSpaceOnUse"
       gradientTransform="matrix(19.74797,-5.2914524,2.5727027,9.6014571,-16.474728,94.074612)" />
    <radialGradient
       cx="21.628534"
       cy="7.3292775"
       r="5.8947372"
       fx="21.628534"
       fy="7.3292775"
       id="radialGradient3052"
       xlink:href="#linearGradient7134"
       gradientUnits="userSpaceOnUse"
       gradientTransform="matrix(19.74797,-5.2914524,2.5727027,9.6014571,-16.474728,94.074612)" />
    <radialGradient
       cx="21.628534"
       cy="7.3292775"
       r="5.8947372"
       fx="21.628534"
       fy="7.3292775"
       id="radialGradient3055"
       xlink:href="#linearGradient7134"
       gradientUnits="userSpaceOnUse"
       gradientTransform="matrix(19.74797,-5.2914524,2.5727027,9.6014571,433.52527,94.074612)" />
  </defs>
  <g
     transform="translate(-865.50001,-49.51429)"
     id="g3735">
    <path
       d="m 340.5,89.75 a 21.125,7 0 1 1 -42.25,0 21.125,7 0 1 1 42.25,0 z"
       transform="matrix(0.9576164,0,0,0.5755102,583.66127,41.347962)"
       id="path10832"
       style="opacity:0.35;fill:url(#radialGradient3037);fill-opacity:1;stroke:none;display:inline;enable-background:new" />
    <path
       d="m 340.5,89.75 a 21.125,7 0 1 1 -42.25,0 21.125,7 0 1 1 42.25,0 z"
       transform="matrix(0.8284027,0,0,0.4285713,624.9289,54.535726)"
       id="path10834"
       style="fill:url(#radialGradient3039);fill-opacity:1;stroke:none" />
    <path
       d="m 889.5,50.5 c -6.63601,0 -12.03124,5.80331 -12.03125,12.96875 0,3.599306 1.36878,6.866679 3.5625,9.21875 -6.24362,1.886219 -10.53125,5.909018 -10.53125,11.25 10e-6,2.703455 1.11784,7.272278 5,8.3125 10e-6,10e-7 0.0625,1.09375 0.0625,1.09375 1.25702,0.20172 2.98003,1.15625 13.9375,1.15625 0.0111,0 0.0201,4e-6 0.0312,0 10.95747,0 12.68048,-0.954534 13.9375,-1.15625 0,0 0.0625,-1.093753 0.0625,-1.09375 3.88216,-1.040222 4.99999,-5.609049 5,-8.3125 0,-5.349112 -4.3034,-9.367438 -10.5625,-11.25 2.19372,-2.352071 3.5625,-5.619444 3.5625,-9.21875 C 901.53125,56.303311 896.13601,50.5 889.5,50.5 z"
       id="path10838"
       style="fill:url(#radialGradient3055);fill-opacity:1;fill-rule:evenodd;stroke:#555753;stroke-width:0.99999988;stroke-linecap:butt;stroke-linejoin:round;stroke-miterlimit:4;stroke-opacity:1;stroke-dasharray:none;stroke-dashoffset:0;marker:none;visibility:visible;display:inline;overflow:visible;enable-background:accumulate" />
    <path
       d="m 439.5,51.65625 c -5.97091,0 -10.87499,5.219703 -10.875,11.8125 0,3.310083 1.25426,6.297703 3.25,8.4375 a 1.1409117,1.1409117 0 0 1 -0.5,1.875 c -2.97609,0.899087 -5.44403,2.29879 -7.125,4.03125 -1.68097,1.73246 -2.59375,3.759779 -2.59375,6.125 0,1.194497 0.23808,2.874396 0.90625,4.28125 0.66817,1.406854 1.65455,2.518373 3.21875,2.9375 a 1.1409117,1.1409117 0 0 1 0.84375,1.03125 l 0,0.21875 c 0.59306,0.140865 1.0244,0.282499 2.40625,0.46875 1.88623,0.254232 5.02314,0.46875 10.46875,0.46875 l 0.0312,0 c 5.44561,0 8.58252,-0.214517 10.46875,-0.46875 1.38185,-0.186251 1.81319,-0.327886 2.40625,-0.46875 0.004,-0.0696 0,-0.21875 0,-0.21875 A 1.1409117,1.1409117 0 0 1 453.25,91.15625 c 1.5642,-0.419126 2.55058,-1.530646 3.21875,-2.9375 0.66817,-1.406854 0.90625,-3.086755 0.90625,-4.28125 0,-2.368629 -0.90737,-4.392969 -2.59375,-6.125 -1.68638,-1.732031 -4.17203,-3.133681 -7.15625,-4.03125 a 1.1409117,1.1409117 0 0 1 -0.5,-1.875 c 1.99574,-2.139797 3.25,-5.127417 3.25,-8.4375 0,-6.592794 -4.90409,-11.8125 -10.875,-11.8125 z"
       transform="translate(450.00001,0)"
       id="path11521"
       style="fill:none;stroke:url(#linearGradient3000);stroke-width:0.99999988;stroke-linecap:butt;stroke-linejoin:round;stroke-miterlimit:4;stroke-opacity:1;stroke-dasharray:none;stroke-dashoffset:0;marker:none;visibility:visible;display:inline;overflow:visible;enable-background:accumulate" />
    <path
       d="m 886.50001,60.499998 6.09026,6.090264"
       id="path11555"
       style="fill:#babdb6;fill-opacity:1;stroke:#ffffff;stroke-width:1.5;stroke-linecap:square;stroke-linejoin:round;stroke-miterlimit:4;stroke-opacity:1;stroke-dasharray:none;stroke-dashoffset:0.3612;display:inline;enable-background:new" />
    <path
       d="m 892.59027,60.499998 -6.09026,6.090264"
       id="path11557"
       style="fill:#babdb6;fill-opacity:1;stroke:#ffffff;stroke-width:1.5;stroke-linecap:square;stroke-linejoin:round;stroke-miterlimit:4;stroke-opacity:1;stroke-dasharray:none;stroke-dashoffset:0.3612;display:inline;enable-background:new" />
    <path
       d="m 886.50001,59.499998 6.09026,6.090264"
       id="path11549"
       style="fill:#babdb6;fill-opacity:1;stroke:#2e3436;stroke-width:1;stroke-linecap:square;stroke-linejoin:round;stroke-miterlimit:4;stroke-opacity:1;stroke-dasharray:none;stroke-dashoffset:0.3612;display:inline;enable-background:new" />
    <path
       d="m 892.59027,59.499998 -6.09026,6.090264"
       id="path11551"
       style="fill:#babdb6;fill-opacity:1;stroke:#2e3436;stroke-width:1;stroke-linecap:square;stroke-linejoin:round;stroke-miterlimit:4;stroke-opacity:1;stroke-dasharray:none;stroke-dashoffset:0.3612;display:inline;enable-background:new" />
  </g>
</svg>
